<?xml version="1.0" encoding="UTF-8" standalone="no"?>
<!-- Created with Inkscape (http://www.inkscape.org/) -->

<svg
   xmlns:dc="http://purl.org/dc/elements/1.1/"
   xmlns:cc="http://creativecommons.org/ns#"
   xmlns:rdf="http://www.w3.org/1999/02/22-rdf-syntax-ns#"
   xmlns:svg="http://www.w3.org/2000/svg"
   xmlns="http://www.w3.org/2000/svg"
   xmlns:sodipodi="http://sodipodi.sourceforge.net/DTD/sodipodi-0.dtd"
   xmlns:inkscape="http://www.inkscape.org/namespaces/inkscape"
   id="svg2"
   version="1.1"
   inkscape:version="0.92.3 (2405546, 2018-03-11)"
   width="100%"
   height="100%"
   viewBox="-750 0 2284 919"
   xml:space="preserve"
   sodipodi:docname="CFD_map.svg"
   inkscape:export-xdpi="90"
   inkscape:export-ydpi="90"><metadata
     id="metadata8"><rdf:RDF><cc:Work
         rdf:about=""><dc:format>image/svg+xml</dc:format><dc:type
           rdf:resource="http://purl.org/dc/dcmitype/StillImage" /><dc:title /></cc:Work></rdf:RDF></metadata><defs
     id="defs6"><pattern
       y="0"
       x="0"
       height="6"
       width="6"
       patternUnits="userSpaceOnUse"
       id="EMFhbasepattern" /></defs><sodipodi:namedview
     pagecolor="#ffffff"
     bordercolor="#666666"
     borderopacity="1"
     objecttolerance="10"
     gridtolerance="10"
     guidetolerance="10"
     inkscape:pageopacity="0"
     inkscape:pageshadow="2"
     inkscape:window-width="1920"
     inkscape:window-height="986"
     id="namedview4"
     showgrid="false"
     inkscape:zoom="0.53696843"
     inkscape:cx="1235.961"
     inkscape:cy="885.6283"
     inkscape:window-x="-11"
     inkscape:window-y="-11"
     inkscape:window-maximized="1"
     inkscape:current-layer="g10"
     inkscape:object-paths="true"
     inkscape:snap-intersection-paths="true"
     inkscape:object-nodes="true"
     inkscape:snap-smooth-nodes="true"
     inkscape:snap-global="false" /><g
     id="g10"
     inkscape:groupmode="layer"
     inkscape:label="ne_borders"
     transform="matrix(1.25,0,0,-1.25,0,719.00001)"
     style="display:inline"><path
   style="fill:#fefee9;stroke:#646464;stroke-width:0.80000001;stroke-linecap:butt;stroke-linejoin:miter;stroke-miterlimit:3.32551003;stroke-dasharray:none;stroke-opacity:1"
   d="m 381.59847,388.49845 c 8.19689,-2.40715 1.53741,-14.17046 10.99996,-12.69995 -3.43522,-2.69874 -10.33285,-4.19788 -8.79997,-11.69995 -2.71503,0.0532 -5.36382,-4.77353 -7.49997,-8.69997 -2.76541,-3.83506 -11.17671,-5.79106 -9.69996,-11.59995 -6.93135,-0.63237 3.577,-9.38691 -1.29999,-12.09995 -3.5349,-3.06042 -6.43987,-6.55077 -5.49998,-10.79996 -2.19504,-7.42628 -10.16235,-3.31532 -13.59994,-3.09999 -2.95802,0.20177 -12.16186,8.79843 -12.59995,0.3 -1.11723,7.15361 -6.25593,6.90585 -11.09996,3.09999 -8.07024,-1.46372 -3.45685,11.42228 -12.04322,4.74028 0.98171,5.63103 -7.08774,-2.21901 -6.5774,6.517 2.98465,6.81556 -5.99963,4.93609 -2.6793,12.44263 -5.78181,6.02216 -5.55919,13.8527 -14.39995,8.79996 -9.01522,-6.12868 -7.43747,4.88452 -15.39994,2.09999 -2.97421,7.81381 -8.39149,2.11827 -12.59995,6.89997 -6.96877,-0.45801 -5.91702,9.76249 -7.09997,15.09994 -6.58775,-0.01 -0.25209,11.92523 -5.79997,14.79994 -0.52593,3.70376 -0.99671,15.21036 5.48159,8.64163 1.01231,-6.64887 4.05196,-5.97096 8.41835,-2.24165 4.62383,-3.49732 8.75983,-3.24784 13.29995,-1.69999 7.85475,-6.86233 1.93159,10.16524 7.24959,10.59995 4.17586,2.03106 13.75232,5.23993 14.94633,-2.63041 -1.04864,-5.38646 -0.28798,-11.20681 4.50397,-13.96952 5.31776,-4.20902 9.59035,2.66701 13.09995,3.39999 0.92408,4.1605 11.45634,5.08008 12.89995,1.09999 3.11276,-4.44924 4.30179,0.30389 7.99996,-4.39998 8.9385,1.85912 18.24364,-0.13947 26.1999,3.69998 -0.17549,-5.78631 3.4462,-13.37823 9.19996,-6.29997 3.4969,5.91129 7.57606,-2.56235 12.39996,-0.3 z"
   id="Vladimir"
   inkscape:connector-curvature="0" /><path
   d=""
   id="path7"
   inkscape:connector-curvature="0" /><path
   d=""
   id="path9"
   inkscape:connector-curvature="0" /><path
   style="fill:#fefee9;stroke:#646464;stroke-width:0.80000001;stroke-linecap:butt;stroke-linejoin:miter;stroke-miterlimit:3.32551003;stroke-dasharray:none;stroke-opacity:1"
   d="m 97.39961,256.39898 c 6.02288,-5.2812 6.57341,-9.41721 13.97903,-9.03775 5.08423,2.98704 6.22845,-6.39196 10.62087,-9.56218 4.59265,-4.23078 2.26454,-9.48754 2.29999,-14.89994 4.58317,-4.06766 18.88513,2.15646 16.02802,-6.59444 5.10803,1.90671 1.94152,-7.15107 4.7719,-10.80549 6.86596,2.14222 4.44343,-8.65201 -0.6,-5.49998 1.17082,-5.16431 -6.25372,-1.26564 -8.19998,-4.79998 -4.65638,-4.04095 -0.23536,-8.31741 3.99999,-9.19996 4.06241,-4.57562 -1.16485,-7.4312 -1,-14.29994 -9.07421,-2.19378 0.86926,-9.18578 -3.69998,-13.59995 1.6075,-6.94585 -4.98445,0.77379 -6.07582,-4.50334 4.49045,-6.51695 -7.60351,-8.32745 -5.72414,-7.49661 -8.78726,-2.81364 1.8971,-10.94373 -4.99998,-10.39996 -3.28709,3.28499 -7.71637,4.75203 -8.29996,9.99996 1.87704,7.71288 -4.49441,11.65374 -7.99997,17.39993 -7.404037,0.70939 -9.158047,-4.30753 -13.199947,-0.10001 -6.535948,3.94454 -10.409393,-2.0248 -15.09994,-5.29998 -5.914567,-1.36316 -14.090587,6.73926 -18.594295,2.60139 1.123545,-5.22931 -1.704883,-13.09362 -8.405596,-14.10134 -7.290115,-1.32003 -8.088777,3.8621 -12.39995,8.39997 -2.261506,5.07798 -3.545532,9.54061 -3.899986,16.69993 3.934859,2.40556 -2.788578,6.96598 -1.354542,11.26878 5.047522,6.78728 -6.242845,10.05986 -7.535875,16.52315 0.837659,3.6379 2.363561,13.2625 9.790415,11.90791 6.776698,0.49103 5.747856,-9.15141 13.199947,-6.19997 6.376286,-2.18352 10.816677,3.55754 14.663473,8.53188 -2.449459,5.03398 8.700366,1.3444 7.43644,6.26806 -0.743013,6.6816 6.898817,0.71291 6.199975,7.99996 -0.621005,6.30845 7.562011,9.75319 10.099959,13.99995 1.593701,3.08566 2.848826,5.82298 0.999996,10.49996 5.802336,2.88837 4.834824,-1.91343 8.099967,3.39998 1.84462,0.72926 2.861131,0.99986 4.899989,0.90001 z"
   id="Bransk"
   inkscape:connector-curvature="0" /><path
   style="fill:#fefee9;stroke:#646464;stroke-width:0.80000001;stroke-linecap:butt;stroke-linejoin:miter;stroke-miterlimit:3.32551003;stroke-dasharray:none;stroke-opacity:1"
   d="m 116.49953,368.59853 c 2.21252,-4.49495 8.48736,-5.22507 13.49995,-7.69997 4.13396,3.67075 12.18506,4.3372 16.99993,0.5 -0.0401,-2.05945 6.28835,-7.85442 3.19999,-11.29996 1.74522,-3.84363 4.41603,-9.70264 -0.9,-9.69996 2.90403,-5.13703 -2.71964,-12.21055 2.59999,-17.29993 -1.68938,-5.11455 -6.48522,-10.06284 -7.19997,-15.09994 -2.86267,-3.73541 -10.23231,-3.01056 -8.69996,-8.69996 4.13648,-4.36093 -8.05588,-9.98014 -12.19996,-6.79998 -1.54451,0.75449 -0.1704,-8.87805 -2.37887,-12.31965 -2.90284,-6.24216 -7.71507,7.80302 -13.67202,5.46379 -4.63877,1.45231 -12.644888,-1.45548 -9.949001,-6.64408 -2.345899,-3.7027 0.307736,-9.59476 -1.599994,-11.09996 -0.75913,-4.8703 -1.970246,-7.64647 -5.699979,-9.59996 2.849508,-2.23288 -0.715359,-8.15037 -1.799991,-4.69998 -7.284692,-0.21521 -1.654916,-6.54087 -4.099983,-9.89996 -1.643352,-3.62575 -6.649157,-7.50277 -10.49571,-11.6957 -0.484133,-3.96961 -1.422881,-10.30315 -5.104228,-9.10422 -3.097874,2.05687 -4.169094,2.72816 -7.39997,5.29998 -8.321622,4.14491 3.028147,10.70959 -7.59997,13.19995 -5.799125,5.5447 -21.807848,-3.97542 -15.060714,8.23101 2.229049,6.68613 -0.666501,9.47756 -6.18146,11.44329 -8.105824,1.7926 -10.697392,9.01471 -12.333529,15.92891 -8.690862,3.66364 0.883947,11.2904 -5.664283,14.76772 -5.9709195,2.58213 -11.8826028,8.24405 -6.9598278,14.82881 3.8497648,3.47365 4.8706988,4.445 4.5999818,10.59996 -1.696144,3.95823 -9.5478921,9.0999 -3.1210692,13.07499 1.2529272,5.1256 -0.5157839,11.18681 2.9210712,17.02489 1.927354,7.40629 6.356588,2.27287 11.099956,2.59998 4.724865,1.86505 12.029952,-1.6622 15.799938,1.79999 8.118578,3.54237 5.915975,-7.07688 9.99996,-4.29998 4.624652,-0.5702 10.03507,4.15381 13.199947,-1 3.426981,2.7659 8.586915,0.60494 12.699949,-1.39999 5.300914,0.10444 8.45271,3.77749 14.199943,4.09999 2.312488,3.944 11.084023,6.72298 7.999968,12.59995 8.473705,-4.43282 3.901265,10.1673 11.849175,6.63518 2.54751,-1.00809 5.48859,2.4255 7.45074,0.26479 z"
   id="Smolensk"
   inkscape:connector-curvature="0" /><path
   style="fill:#fefee9;stroke:#646464;stroke-width:0.80000001;stroke-linecap:butt;stroke-linejoin:miter;stroke-miterlimit:3.32551003;stroke-dasharray:none;stroke-opacity:1"
   d="m 351.09844,461.99845 c -4.53093,-2.98536 4.07219,-18.0551 -5.9,-15.3 -4.95775,-3.02521 -10.43918,-2.92704 -13.6,-7.4 -5.52213,-0.85939 -12.38448,0.69764 -16.2,-3.5 -8.16699,2.0495 -9.43189,0.25026 -12,-3.8 -8.5449,2.44858 -7.95854,-6.53576 -15,-7.2 -7.80246,-2.32273 0.1845,-6.46514 -6,-8.7 -3.87414,-4.95029 -1.80454,-11.45646 4.9,-5.3 10.15039,0.67708 7.13457,-9.0191 8.14486,-13.64437 1.54533,-4.88821 8.14396,-10.22513 12.25514,-5.25563 4.84318,0.92537 5.3542,5.75739 9.92854,5.54525 6.90068,5.17162 9.51296,-6.69526 11.97146,-2.74525 3.28165,-5.26461 11.96637,-1.9177 18.6,-1.9 5.61964,-1.40165 14.95714,6.35394 12.909,-4.34694 3.27214,-8.0354 9.05559,5.80082 13.77273,1.48048 7.74056,-5.69049 7.1089,5.21444 14.66642,0.99915 0.39912,1.68052 2.91762,7.92468 0.95185,10.26731 -4.44083,-1.16186 -2.38014,10.70782 2.84753,10.11923 6.30703,1.59441 13.76974,0.36984 7.49465,9.23389 -8.39128,6.62278 1.45347,18.40122 2.25782,23.44688 -4.67583,-2.31934 -0.27369,17.79764 -3.1,7.9 2.57451,-6.88773 -3.55887,-11.29676 -10,-9.6 -1.94265,5.09605 1.16313,9.33234 -0.3,15.4 -4.03509,2.62534 -9.92928,-3.8337 -14.60134,-3.62818 -5.30375,-4.84944 -13.01221,-1.28717 -15.79866,4.42818 -3.31876,0.98464 -4.27335,3.83666 -8.2,3.5 z"
   id="Ivanovo"
   inkscape:connector-curvature="0" /><path
   style="fill:none;stroke:#646464;stroke-width:0.80000001;stroke-linecap:butt;stroke-linejoin:miter;stroke-miterlimit:3.32551003;stroke-dasharray:none;stroke-opacity:1"
   d="m 442.19823,540.09784 c -4.66614,0.32403 -0.26219,6.26669 0,0 z"
   id="path48"
   inkscape:connector-curvature="0" />
	   <path
   style="fill:#fefee9;stroke:#646464;stroke-width:0.80000001;stroke-linecap:butt;stroke-linejoin:miter;stroke-miterlimit:3.32551003;stroke-dasharray:none;stroke-opacity:1"
   d="m 503.09799,566.09774 c 7.25675,-3.50957 17.8663,2.8095 22.27411,-2.63308 -5.60063,-12.36137 6.13236,-10.73832 5.42048,-21.15375 4.60809,-2.85931 10.28205,-5.69886 9.05645,-12.79551 3.45277,-8.02074 -5.51318,-1.24474 -8.75115,-3.71749 2.57012,-7.12066 -2.36634,-7.96407 -6.59998,-9.09995 -2.04076,-6.30201 -5.63765,-8.77063 -12.99995,-9.39996 -6.21027,-0.25848 0.0857,-10.87086 -8.29996,-11.89996 3.87295,-0.5976 -1.61376,-8.75085 -2.893,-12.68597 1.81716,-5.46941 -10.52267,-2.21999 -14.85073,-4.17972 -4.44653,0.0204 -8.35984,-11.57669 -11.15616,-2.53423 -4.85568,2.66211 -12.53889,5.30854 -18.43893,4.18104 -9.04662,-2.43755 1.65722,-12.20408 -4.41692,-17.33372 -4.44187,-4.29537 -10.36046,-6.30763 -14.19793,-12.94025 -5.73382,-2.51731 -16.01911,-9.82849 -20.24599,-1.70696 -7.38376,1.83667 -1.77583,13.94245 -8.39996,3.99999 -5.28511,-5.39139 -7.82844,-13.33096 -7.99998,-0.9 0.0977,9.6255 0.11318,-4.57249 -1.4,-7.59997 -7.95914,-4.40183 -11.32527,0.66149 -9.99996,6.79997 3.94241,9.01379 -3.74476,9.99579 -8.69996,4.49998 -5.52584,2.25664 -8.98745,-6.20042 -14.61965,-2.37887 -5.65304,1.60444 -8.13609,10.61908 -15.68023,8.97885 -0.91233,-6.23682 2.67753,-16.7667 -6.39998,-16.39994 -6.1865,0.55 -8.69365,-3.53517 -12.49995,-6.09997 -5.52541,-0.36274 -12.19453,0.72026 -15.89993,-3.29999 -5.16905,2.4024 -0.91066,9.26954 -3.49999,12.99995 4.11563,-3.38683 1.64414,8.42531 5.89998,1.95037 4.84689,1.91215 -0.4179,12.37001 0.85977,17.83533 -0.73649,6.67449 8.73908,11.01512 8.35913,16.85316 0.79776,4.11064 9.70761,7.88006 7.96696,11.18225 -1.41872,4.61145 -5.79867,9.50359 -4.83528,12.83837 7.26182,3.20444 7.01619,7.81363 6.64936,12.24023 5.60651,3.63586 -5.35043,6.0567 3.09999,8.69996 4.10274,-2.92446 10.43767,4.91356 14.39994,7.19997 3.83031,-3.0836 12.46433,-0.14149 11.39996,6.29998 -6.64488,-0.22126 -3.49173,14.71254 2.79999,9.39996 -1.03611,-8.87303 5.69476,-7.27104 11.19995,-4.69998 5.7214,0.73732 4.30914,-8.55206 10.09996,-7.89997 4.89845,-0.95437 7.66819,10.14327 11.79995,3.69999 4.889,-5.06748 6.21868,8.38396 9.59998,0.4 -1.82117,-9.91621 7.02738,5.59301 11.49693,-1.24803 6.27945,-0.0364 9.70183,-0.63965 14.70296,-4.75195 6.52457,3.38488 19.43257,-5.30587 22.69991,2.19999 6.38066,0.61334 11.2959,-0.0941 16.44902,0.55923 6.5297,0.30528 12.99004,-1.79806 15.25085,6.74074 9.66819,-0.0708 11.01026,6.6498 10.91497,16.53052 l 0.085,0.56941 0.3,0.7 z"
   id="Kostroma"
   inkscape:connector-curvature="0" /><path
   style="fill:#f5f5f5;stroke:#646464;stroke-width:1;stroke-linecap:butt;stroke-linejoin:miter;stroke-miterlimit:3.32551003;stroke-dasharray:none;stroke-opacity:1"
   d=""
   id="path16"
   inkscape:connector-curvature="0" /><path
   style="fill:#fefee9;stroke:#646464;stroke-width:0.80000001;stroke-linecap:butt;stroke-linejoin:miter;stroke-miterlimit:3.32551003;stroke-dasharray:none;stroke-opacity:1"
   d="m 223.69911,502.99799 c 1.45384,-7.03349 -10.21208,-3.45051 -7.49997,-11.19995 -4.55836,-7.15028 8.74669,-4.94578 8.89996,-11.99995 -2.60096,-2.48617 -12.68995,-5.27332 -6.89997,-8.19997 2.14702,-2.4046 -4.83827,-0.55082 -2.29999,-4.89998 4.99553,-1.64379 6.77545,-8.1947 11.79995,-10.69996 3.21981,-0.55384 2.70323,-8.95907 1.29999,-11.19995 4.71559,-3.45288 10.0637,-7.60249 15.19994,-3.69999 5.52774,-5.88394 -5.98182,-6.27315 -3.19998,-10.79996 7.38216,-3.03024 -2.02254,-10.80691 1.29999,-11.79995 -1.12649,-5.35842 -4.35091,-5.77611 1.59999,-9.99996 -7.20727,-5.23992 -7.61102,4.88524 -12.29995,5.19998 -2.61972,4.22002 -6.99984,4.59868 -9.99997,1.69999 1.87837,-5.4218 -6.27848,-9.36298 -9.59996,-7.29997 -7.92488,-1.4601 -1.03258,-8.01013 -4.59998,-12.89995 -3.85076,-3.63895 -8.01227,5.99546 -13.02106,-0.11787 -5.20976,-6.41182 -11.28607,-4.69128 -17.87882,-8.58209 -2.56802,-1.94322 -11.57998,-0.44019 -13.89994,3.59998 -8.07156,4.30829 -7.93157,-2.06143 -5.19998,-5.39997 -1.2932,-0.92259 -0.68069,-7.35209 -5.79998,-7.79997 0.53645,-5.91416 -3.03935,-8.26364 -5.99997,-13.89995 -4.32287,1.39044 -12.55345,1.15529 -17.19993,-2.29999 -5.48481,4.44643 -9.89355,4.11846 -13.59995,8.69997 -7.74044,0.24898 -11.90205,-0.93145 -12.59995,-8.09997 -6.37917,3.56727 -3.79285,-6.235 -9.199961,-9.29996 -4.846778,-2.53275 -9.203945,-5.12644 -13.799945,-5.79998 -4.835608,-2.41262 -8.515203,1.71915 -13.599945,1.59998 -3.755359,-3.00782 -6.968585,3.6121 -11.299955,0.3 -6.514348,-1.47296 -7.471246,-1.93216 -9.299963,2.89999 -5.543052,2.88918 -12.958457,-3.75551 -17.49993,0.7 -2.099037,6.57329 -4.895082,12.47732 1.499994,16.09993 -2.472368,6.05609 3.273761,15.70745 -6.247098,15.64225 -2.237416,3.04793 -6.250692,7.48126 -9.252844,10.45765 5.734462,10.34429 -2.483301,7.542 -5.6552921,9.60421 -4.5003958,6.2246 3.2836261,5.12494 1.9553073,11.4957 3.6584908,3.4814 9.0517508,3.65409 14.9999398,2.49998 8.475606,-3.80092 7.882556,7.7512 12.59218,8.48215 5.564003,-1.8456 7.759977,2.673 13.207717,4.9178 3.804575,5.30738 3.197992,2.72406 10.399958,5.09998 5.572969,1.53477 5.454361,10.74517 11.899952,9.59996 4.962321,1.77723 15.196043,-4.3895 11.399955,2.99999 1.197557,4.99206 3.315294,9.56395 9.299963,11.69995 -1.007408,7.29756 7.839847,9.25536 4.399982,16.19994 -7.598805,0.9047 -0.330745,9.42803 4.099985,7.29997 6.42254,3.2098 8.60797,4.79906 16.70595,1.71843 4.70636,-0.43363 13.29609,-10.34748 12.29394,-0.51844 -2.65784,5.77886 8.28025,4.50769 10.49995,1.8 9.04616,0.84691 4.86737,9.84827 10.19996,11.99995 5.00102,2.64424 12.51416,0.90229 18.69993,0.6 0.61196,4.91133 8.92545,6.12433 11.69995,4.89998 4.75052,-1.41824 8.32841,5.35262 11.19996,9.69996 4.65525,0.11048 1.82314,9.23359 8.59996,7.99997 8.23439,5.85153 8.13453,-7.16323 13.79995,-11.09996 3.01604,-2.46045 5.37397,-4.83536 7.89998,-7.89995 z"
   id="Tver"
   inkscape:connector-curvature="0" /><path
   style="fill:none;stroke:#646464;stroke-width:0.80000001;stroke-linecap:butt;stroke-linejoin:miter;stroke-miterlimit:3.32551003;stroke-dasharray:none;stroke-opacity:1"
   d="m 442.19823,540.09784 c -0.43289,6.25402 -4.65186,0.39915 0,0 z"
   id="path58"
   inkscape:connector-curvature="0" /><path
   style="fill:#fefee9;stroke:#646464;stroke-width:0.80000001;stroke-linecap:butt;stroke-linejoin:miter;stroke-miterlimit:3.32551003;stroke-dasharray:none;stroke-opacity:1"
   d="m 328.69869,507.89797 c 4.99344,-3.06769 3.186,-9.5037 7.19997,-12.79995 -3.74057,-3.76724 -9.48926,-6.76335 -8.49997,-12.29995 -5.04501,-4.74457 -10.49554,-11.22103 -8.45474,-18.7953 -0.50601,-4.03396 2.99751,-17.06909 -2.04522,-11.70457 -3.87504,-1.86777 -3.78796,-3.19566 -4.21792,-6.27406 -0.51197,-3.13124 3.46919,-12.46259 -4.78204,-9.72588 -2.95575,-1.6941 -4.35258,-4.95738 -12.03761,-5.79219 -1.0059,-4.51266 -9.0147,-5.38471 -11.8623,-9.60775 3.76395,-2.4887 -2.60315,-5.52996 -3.79998,-8.19997 -0.88649,-5.74304 -2.59459,-9.54027 -3.25871,-16.63206 -3.94453,2.92929 -8.38017,-2.05164 -12.94123,0.93213 -3.00777,5.51761 -9.55484,-3.6685 -11.19995,-0.1 0.54893,6.26743 -9.45653,7.29112 -10.09996,13.59994 -7.25001,1.9237 3.511,6.16265 -2.09999,9.59996 7.27428,2.47888 -0.17593,9.56229 0.1,13.39995 5.32737,-0.80601 6.77451,10.51071 -0.1,6.49997 -1.80867,-2.20809 -13.59351,3.72546 -10.09996,5.99998 -2.63973,4.71405 2.03051,10.45543 -5.39998,11.59995 -1.46849,3.4901 -7.58675,11.78082 -8.29997,10.09996 -5.552,3.82496 8.72593,1.63354 -1.1701,5.29002 2.59949,1.98539 7.81783,5.30501 8.97007,8.20994 -1.80721,5.55703 -13.8803,4.5639 -7.59997,11.39995 -3.48648,7.8007 9.25189,3.67471 8.02523,11.66192 -0.66671,10.48545 9.4635,2.32056 11.0747,11.238 7.40193,-0.96459 15.77949,1.7589 20.39991,1.99999 6.69371,-2.66954 10.52008,1.6188 9.69997,6.79998 -4.32877,5.84581 8.94157,3.59057 12.55619,1.8927 6.87819,-0.98531 12.15241,-1.792 16.34369,-8.29268 7.35572,0.3868 4.81734,-10.81247 11.93684,-11.79826 7.02222,-1.42961 11.22315,5.28118 17.66304,1.6983 1.33291,-0.005 2.67006,0.37534 3.99999,0.1 z"
   id="Yroslavl"
   inkscape:connector-curvature="0" /><path
   style="fill:#fefee9;stroke:#646464;stroke-width:0.80000001;stroke-linecap:butt;stroke-linejoin:miter;stroke-miterlimit:3.32551003;stroke-dasharray:none;stroke-opacity:1"
   d="m 212.09915,300.7988 c -2.70752,-4.52919 -1.76385,-14.64635 -6.59997,-15.49994 -6.5522,7.46437 -11.30761,-1.11219 -4.59998,-5.19998 5.59574,-5.14511 -2.67282,-13.13031 -5.29998,-8.89996 -4.87724,2.43125 -9.79576,-2.14931 -11.59996,-4.69998 -6.08565,2.7854 -4.44968,-5.32404 -11.06727,-1.42924 2.4995,-4.76134 2.08706,-3.52523 5.86729,-6.87073 -4.50927,-2.91303 -4.89192,-9.31419 -9.59996,-11.89995 0.0271,-4.37218 5.49152,-7.3047 2.49999,-10.79996 -1.16046,2.00107 -6.00376,-10.08299 -9.89996,-6.09997 -3.79998,-2.78117 -7.90647,-5.543 -8.59996,-10.39996 -2.85482,-5.04446 -5.08359,-3.15484 -9.69996,-2.5 -4.32004,-0.33752 -2.94767,8.30532 -13.69995,4.39998 -6.57672,1.04075 -5.63787,7.89743 -4.99998,12.29995 -1.63971,5.99676 -8.92387,9.71396 -9.59996,14.89994 -5.67802,-0.007 -12.31313,-2.61474 -13.79995,5.49998 -2.475941,4.52423 -16.029518,0.9732 -8.59996,5.99998 1.376979,0.17933 6.272958,14.60779 3.699987,9.39996 1.411656,3.53554 0.490071,8.82001 0.299999,11.99995 2.545563,7.03044 10.311354,4.74536 15.999934,3.49999 6.0719,-7.96877 8.65866,-6.84202 10.10387,1.01952 -0.1769,9.49843 -0.99111,5.34384 7.99606,7.08044 10.28268,0.9226 1.70217,8.74329 7.13062,11.44164 5.65737,0.71371 6.43711,7.21096 11.06648,11.8719 -0.69211,6.36194 4.63261,6.15774 8.10279,8.28634 3.52921,5.28682 10.27795,-2.41884 15.99994,-1.89999 4.49655,-5.31832 10.21454,0.96301 11.09995,4.39998 5.56904,1.73731 8.01994,-1.42898 12.69995,-4.59998 1.65715,-1.36236 6.7607,1.12546 8.49997,-6.29998 1.9714,-3.9036 2.95315,-11.9705 6.59997,-14.99993 z"
   id="Kalyga"
   inkscape:connector-curvature="0" /><path
   style="fill:#fefee9;stroke:#646464;stroke-width:0.80000001;stroke-linecap:butt;stroke-linejoin:miter;stroke-miterlimit:3.32551003;stroke-dasharray:none;stroke-opacity:1"
   d="m 158.49937,166.19934 c 0.97582,-9.57371 3.14855,-7.0636 11.39995,-6.59997 5.68643,2.15467 15.68907,8.56914 17.39993,-1.5 4.51665,-4.02174 9.66548,-5.35753 14.59994,-8.99996 7.33478,1.70841 9.14869,-4.62744 14.10346,-9.13793 2.13953,7.99209 8.0807,0.0689 11.59644,4.93796 0.85671,-5.01589 5.43514,-10.05352 10.29794,-5.55348 6.02751,1.44485 5.74454,1.23052 10.80199,0.25349 -3.66495,-7.07046 6.55633,-11.25526 -1.54815,-12.83264 -6.16139,1.92567 -8.53585,-3.83099 -3.75183,-8.16728 1.33547,-3.27964 3.6556,-11.07963 2.59999,-10.69996 -0.11292,-5.70308 -11.82658,-0.01 -8.99997,4.09999 -5.9909,1.17077 -10.7295,-5.19577 -16.09993,-1.5 -4.72832,-1.02403 -10.22001,-2.62828 -13.27579,-4.60333 1.45612,-5.81419 -4.66532,-5.44163 -9.73055,-7.730031 -5.66248,-5.088502 -8.83687,-5.219064 -13.39352,-2.766578 -3.84096,-4.363517 -14.4729,7.241949 -13.99994,-1.599994 2.81461,-2.158558 -4.13786,-8.487016 -6.29998,-7.599971 -0.4208,0.447509 -7.78053,-5.02173 -7.49997,-0.599998 -10.50776,-1.132585 -2.46979,5.261376 -9.31105,5.456549 -5.32901,1.422311 -3.104,14.620003 -11.79586,7.894015 -7.18629,-3.794966 -8.64271,5.964938 -16.49294,3.649368 -8.90888,-4.03095 4.21534,7.36403 -4.99998,8.39997 4.31937,4.24594 -1.78977,11.12055 -2.89998,14.59994 10.18087,0.14242 9.7128,5.88072 10.64541,12.26878 -5.69553,0.57192 1.54838,12.48116 4.15453,8.33114 7.75955,-0.56853 1.06525,8.79056 6.09997,9.69996 2.90384,-4.09303 4.30965,2.81235 5.39998,6.19998 2.1601,-1.85988 9.73903,4.6495 14.39994,1.99999 -0.65209,2.91267 6.92732,4.36533 6.59997,2.09999 z"
   id="Kyrsk"
   inkscape:connector-curvature="0" /><path
   style="fill:#fefee9;stroke:#646464;stroke-width:0.80000001;stroke-linecap:butt;stroke-linejoin:miter;stroke-miterlimit:3.32551003;stroke-dasharray:none;stroke-opacity:1"
   d="m 304.29878,218.19913 c -3.78846,-5.69439 0.97192,-13.69817 -1.39999,-18.99992 -2.43574,-2.84858 0.57866,-10.02038 -2.39999,-11.59996 -4.96935,-2.53575 -1.9478,-8.62743 0.1,-11.79995 6.69669,-3.3636 8.27013,-10.8019 15.73279,-12.55729 3.68561,-2.82801 7.4163,-6.2011 2.46713,-12.14261 -0.0549,-5.93692 -4.01241,-11.46597 -11.72849,-9.2452 -4.87092,0.25359 -10.07672,2.48469 -13.07142,-2.25475 -8.02306,-0.4702 -10.20864,3.85955 -12.89995,9.09996 -6.79934,1.72336 -9.81776,0.58838 -11.29996,-4.79998 -4.62176,3.55479 -8.77394,4.55515 -12.29995,5.59998 -3.23513,-3.94553 -9.30942,-5.09488 -14.49994,-8.49998 -3.33196,-2.96664 -9.99181,-3.63446 -13.09995,-1.89999 -3.96943,6.45762 -2.36338,18.32015 6.29998,18.79992 2.74738,5.31656 -4.1904,8.7677 -3.49999,11.49996 -3.34621,1.74089 -3.24907,5.10132 -4.59998,6.39997 -1.44821,3.02483 0.90175,6.32427 2.79999,9.79996 0.22622,5.14859 -2.66067,7.14406 -0.71278,12.60042 1.12015,8.85124 11.08776,2.76708 14.62238,1.02195 1.82698,-2.98328 9.23706,2.99016 10.7903,5.67756 1.44366,4.70278 -6.43362,11.39307 -1.90574,12.70838 11.31252,-0.63435 -0.78099,12.01859 8.8057,12.09152 7.383,5.01422 7.53402,-7.73178 11.19996,-8.59997 10.51055,-2.05189 8.60937,8.31147 16.09993,10.69996 8.12139,-0.0424 3.68287,-10.85569 11.09996,-11.39996 4.9128,2.7007 -0.1692,-0.69846 3.40001,-2.19998 z"
   id="Lipeck"
   inkscape:connector-curvature="0" /><path
   style="fill:#fefee9;stroke:#646464;stroke-width:0.80000001;stroke-linecap:butt;stroke-linejoin:miter;stroke-miterlimit:3.32551003;stroke-dasharray:none;stroke-opacity:1"
   d="m 209.47656,366.22345 c -5.54756,-3.61912 7.02717,-4.86906 -8e-5,5e-5 z m 4.85782,-3.5625 c -0.2528,-1.96708 3.56712,-6.2833 0.23103,-5.28283 2.29976,-4.30301 -1.5929,-3.23294 0.91092,-7.48904 3.71199,-5.15068 -5.47191,-3.90408 -7.82969,-7.00934 -2.32151,-1.48523 2.71325,-12.25628 -2.26093,-7.81871 -6.16563,5.77636 -11.53885,-2.47977 -2.26097,-8.16407 -1.65159,-1.91738 -0.40536,-12.33825 2.925,-9.39374 3.92896,4.47219 4.53824,6.31929 10.18427,5.75156 -1.15079,5.14313 4.75486,7.42709 -0.40796,11.35937 2.24946,1.22045 7.2977,-1.81513 6.31881,3.61097 1.7521,2.45903 12.42866,8.09659 10.55156,9.45627 5.97988,-0.58288 -6.82136,5.29557 -2.49066,4.01404 -3.33488,9.61139 -9.54566,11.31419 -14.13436,7.81566 0.0646,2.43146 1.90234,3.22888 -1.73702,3.14986 z m 7.43749,-0.1375 0.0937,0.011 z m 9.35313,-7.39219 c -3.02967,-1.30294 3.09317,-0.43561 0,0 z"
   id="Moskva"
   inkscape:connector-curvature="0" /><path
   style="fill:#fefee9;stroke:#646464;stroke-width:0.80000001;stroke-linecap:butt;stroke-linejoin:miter;stroke-miterlimit:3.32551003;stroke-dasharray:none;stroke-opacity:1"
   d="m 226.79844,417.99845 c -8.27712,-8.76077 -20.54495,-9.91832 -20.89998,-23.2 -11.90346,7.1326 -24.42602,-14.70608 -37.48415,-7.88052 -11.80819,6.9815 -12.48331,2.65475 -13.01993,-8.18351 -11.42055,-8.445 -7.28998,-22.59576 -2.56535,-36.49305 -8.44929,-7.0358 -0.73311,-25.98103 12.3109,-17.22992 12.5636,-13.35616 22.63642,11.32783 31.71555,-3.44528 14.88614,-1.51043 -9.69683,24.63953 10.4262,12.49441 1.05064,11.92668 12.72765,15.48222 7.30059,28.35344 2.74589,0.65377 21.50463,-9.18967 16.87666,-13.92343 -11.4606,-12.23844 -13.9343,-13.23216 -17.77008,-25.79708 -19.98299,-4.02108 4.79168,-33.90046 14.40867,-25.29609 4.45622,7.45028 16.08135,-9.25196 23.76083,-10.31342 -13.6269,-13.89416 17.06654,-23.79715 9.29676,-7.60996 -1.96852,15.10279 20.97835,6.24414 19.24922,23.90982 4.95921,8.26521 21.19347,8.85019 11.01806,14.21618 23.01145,6.47632 10.07231,28.53473 0.9826,38.00096 -13.00772,-9.2831 -19.26952,5.07072 -30.34631,4.62323 -13.65731,7.58043 -14.23257,26.49636 -15.90908,41.63131 0.19401,7.88637 -14.65067,8.05212 -19.35116,16.14291 z m -17.32188,-51.775 c 6.87302,-5.88732 -6.41318,-1.6864 0,0 z m 21.72031,-10.89844 -0.225,-0.0531 z m -0.0718,-0.19375 c 3.00979,-0.39012 -3.20201,-1.25709 0,0 z m -18.34218,-9.25312 0.006,-0.21251 z"
   id="Moskva_obl"
   inkscape:connector-curvature="0" /><path
   style="fill:#fefee9;stroke:#646464;stroke-width:0.80000001;stroke-linecap:butt;stroke-linejoin:miter;stroke-miterlimit:3.32551003;stroke-dasharray:none;stroke-opacity:1"
   d="m 172.29931,233.49907 c 3.0632,-5.18533 10.33073,-1.63189 11.99995,-10.09996 7.73943,-1.12398 8.81068,-2.70349 14.92729,-7.9618 5.45948,2.06483 10.76933,-5.36754 15.87259,0.96183 8.57655,0.19964 5.12955,-4.11668 8.18203,-10.87404 5.74328,3.90345 8.91046,-7.12892 5.81791,-11.12587 2.13166,-4.00321 1.68119,-7.98642 -0.1,-12.89995 -0.33525,-2.98638 -3.73216,-4.22799 0.7,-6.89997 -1.32905,-2.78658 3.50236,-5.69579 4.19998,-7.49997 4.73296,-3.98581 2.15575,-9.74012 -1.8,-11.39996 -6.38242,0.0598 -1.9142,-18.58449 -10.09996,-11.29995 -4.7408,-3.46884 -9.10848,-5.7489 -12.09995,3.19997 -5.21051,1.14147 -11.63554,2.98183 -16.59993,5.99998 -6.67549,0.98995 -6.95954,14.09777 -14.2713,9.42858 -6.07603,-3.59951 -12.161,-2.02898 -18.02857,-5.3286 -1.34406,3.3914 -1.43372,12.31209 -6.79998,9.19997 -2.14875,-4.55916 -7.14047,0.59753 -10.39996,-4.59998 -7.25704,-2.56222 -12.87972,6.88782 -4.65887,9.46218 0.49548,6.2972 4.12174,9.39183 1.75889,13.73772 -3.88949,1.45745 -9.15982,4.64508 -5.19997,8.89997 1.69126,5.19196 10.00541,-0.0435 8.89996,5.69997 5.37715,-3.56169 6.83229,7.77723 0.5,5.39998 -3.76523,6.68683 -0.76932,11.19635 2.79999,11.09996 3.5714,-3.47385 5.36696,2.37464 6.49997,6.89998 3.72909,1.43669 5.7504,8.37847 10.59996,4.69998 1.86811,2.19721 3.84967,9.48813 7.29997,5.29998 z"
   id="Orlov"
   inkscape:connector-curvature="0" /><path
   style="fill:#fefee9;fill-opacity:1;stroke:#646464;stroke-width:0.80000001;stroke-linecap:butt;stroke-linejoin:miter;stroke-miterlimit:3.32551003;stroke-dasharray:none;stroke-opacity:1"
   d="m 257.09897,268.09893 c 0.95496,-5.92689 2.69148,-4.3535 1.2,-12.29995 2.25153,-1.62261 3.61857,-5.91843 3.39998,-10.19996 -1.81904,-4.35434 6.80108,-6.08143 1.70001,-11.89995 3.43805,-4.84707 -10.36711,-4.87772 -3.80272,-12.12874 -0.4958,-4.75605 -13.85579,-3.55322 -4.99726,-8.97118 -1.38129,-4.30852 3.76845,-12.13762 -3.89998,-10.99995 -4.81877,-8.13011 -6.85147,0.68844 -13.43504,0.88826 -8.21575,-3.9294 -6.27473,3.71335 -13.96485,3.01172 -2.83805,7.08437 0.18708,11.87345 -9.09997,10.59996 -5.21573,-6.22731 -10.4712,1.91964 -16.49993,-0.4 -3.72546,8.84182 -8.07986,3.62479 -13.89995,8.59997 -1.49551,9.01542 -10.10934,2.99589 -12.09995,10.49996 3.69697,4.45731 -2.75702,6.24914 -2.09999,10.79995 2.27734,2.81298 5.48577,8.68795 8.49997,11.99995 -0.79065,4.21131 -3.6593,2.23084 -5.29998,7.39997 6.50467,-3.32969 4.93143,3.57547 10.99995,1.8 2.2105,1.22397 5.97882,6.79606 11.79996,4.79998 1.11063,-4.67289 10.17773,1.639 6.32185,6.74007 -3.90617,1.89499 -7.32266,13.73991 0.37812,8.95987 6.12127,-7.0515 8.00141,6.28081 8.59997,10.39995 3.67317,8.23078 9.14382,-1.58339 13.8225,-3.43147 3.659,2.80262 6.21175,11.24256 10.97741,2.83148 1.71089,-4.46525 6.76975,-6.08135 11.59995,-6.19998 9.36373,-1.42987 0.39803,-6.61928 0.7,-10.39996 5.605,-4.25685 1.69814,-10.5044 9.09995,-12.39995 z"
   id="Tyla"
   inkscape:connector-curvature="0" /><path
   style="fill:#fefee9;stroke:#646464;stroke-width:0.80000001;stroke-linecap:butt;stroke-linejoin:miter;stroke-miterlimit:3.32551003;stroke-dasharray:none;stroke-opacity:1"
   d="m 237.09905,111.89956 c -2.22668,-5.52484 6.98966,-5.54159 9.79996,-8.49997 9.32767,-1.39589 -1.26776,-6.510277 1.6,-10.799956 5.95595,-4.947912 7.15847,-0.785823 12.56615,-1.12043 5.1144,-4.974498 0.51889,-8.628674 -1.9662,-10.179523 -0.7826,-3.16785 1.0354,-6.590333 4.59999,-9.99996 1.47119,0.801318 8.74368,-4.223209 5.89997,-4.799982 3.14638,-5.811956 -6.55635,-8.722401 0.6,-14.099944 0.005,-3.794908 -0.046,-9.372998 3.05738,-13.018445 5.02502,-3.208222 0.0658,-6.88409 -0.009,-12.330218 -2.79725,-6.679906 -11.1183,-3.111877 -16.14831,2.348754 -1.27186,3.79486 -12.05437,-0.807353 -12.49995,7.49997 -5.471,0.781995 -4.87732,-15.663996 -10.48598,-5.12793 -4.39668,5.407967 -13.33959,9.283912 -11.21393,17.72788 -4.89054,4.914375 -7.63253,11.386022 -14.27621,3.428838 -6.78957,-0.221126 -13.70663,-2.760124 -17.72366,-8.228819 -1.89289,6.943764 -8.8476,2.18886 -11.90097,7.011482 -2.42909,8.085186 -13.84147,6.458556 -17.39892,0.488488 -4.64279,3.967434 -8.63049,9.197219 -9.49996,16.299935 6.37471,3.623097 -1.66012,10.911347 -1.79999,16.599933 -0.46391,5.01791 8.0964,-3.347164 9.89996,-1e-6 2.60197,1.221574 5.80824,-0.79373 7.69997,4.099985 7.07943,0.04454 -1.39269,12.677003 8.19997,6.499974 6.50639,-2.325996 10.40829,0.572537 14.79994,-2.299991 3.273,4.311447 11.09577,4.341012 14.59994,8.89997 3.06677,-0.1695 2.25317,6.93518 9.69996,7.29997 4.83702,1.74389 10.36966,-2.83311 15.19994,2.29999 1.95302,-2.38298 3.91381,1.24128 6.69997,0 z"
   id="Belgorod"
   inkscape:connector-curvature="0" /><path
   style="fill:none;stroke:#646464;stroke-width:0.80000001;stroke-linecap:butt;stroke-linejoin:miter;stroke-miterlimit:3.32551003;stroke-dasharray:none;stroke-opacity:1"
   d="m 378.89848,296.49882 c 0.7859,6.2602 -5.00673,1.05905 0,0 z"
   id="path86"
   inkscape:connector-curvature="0" /><path
   style="fill:none;stroke:#646464;stroke-width:0.80000001;stroke-linecap:butt;stroke-linejoin:miter;stroke-miterlimit:3.32551003;stroke-dasharray:none;stroke-opacity:1"
   d="m 378.89848,296.49882 c -4.98236,0.93271 0.66726,6.20847 0,0 z"
   id="path90"
   inkscape:connector-curvature="0" /><path
   style="fill:#fefee9;stroke:#646464;stroke-width:0.80000001;stroke-linecap:butt;stroke-linejoin:miter;stroke-miterlimit:3.32551003;stroke-dasharray:none;stroke-opacity:1"
   d="m 310.59876,328.59869 c -3.06458,-6.36285 9.03078,3.41213 7.19997,-5.69998 3.57897,-5.97224 10.52473,5.07721 13.59994,-0.3 2.25326,-8.94783 2.75873,3.22288 9.69997,-1.79999 3.19396,-4.48438 8.16684,-3.42551 12.79994,-3.99998 2.76019,-4.53759 11.93349,-0.40282 7.89997,-6.79998 5.69156,-5.962 10.5009,1.61367 16.39994,-0.1 -0.0959,-5.04825 -3.30425,-9.97274 -1.99999,-14.59995 4.53187,-2.2525 6.97233,-0.58949 7.09997,-5.79997 2.66761,-4.03173 -0.78818,-7.16815 -2.82545,-8.73311 4.29005,-4.96113 -1.19361,-7.3687 -6.45301,-11.97469 -9.92605,2.36443 -1.66156,-9.57533 1.1707,-0.75447 5.95106,2.32139 7.96358,-6.92119 3.80777,-8.93762 -4.07326,0.35423 -7.96954,4.87927 -7.09997,-0.4 9.30972,-2.76072 3.6188,-11.4125 -2.39999,-13.89994 -7.31997,-0.56078 -15.41956,0.0298 -21.09991,-1.5 -9.7006,1.43138 -3.97786,-9.79584 -7.19997,-14.59994 -4.38295,-7.72336 -7.87037,-3.41105 -13.89995,-1.69999 -2.67265,0.33489 -6.65163,5.69125 -10.33412,-0.55595 -5.2989,-0.58652 -4.41886,-1.14458 -5.36582,-8.04402 -3.74951,1.24645 -7.81813,-0.56358 -9.91068,2.35876 -8.23442,-1.24879 -3.7293,11.13301 -11.88923,11.0412 -7.42263,-2.28652 -4.94563,-12.01931 -15.19994,-10.89996 -3.4941,2.02594 -7.84866,10.02065 -9.90695,11.78598 -0.8664,3.76092 0.29059,8.55304 -3.19301,11.21393 -0.0209,4.91691 0.51244,6.70363 -1.99999,11.49995 -5.1525,-1.38796 4.20698,11.7305 -2.39999,8.59997 -0.1118,4.13598 1.21968,11.90414 5.89998,11.39995 3.04905,1.90772 -8.76987,12.33282 2.29999,13.29995 5.17336,-2.53717 9.53957,3.92297 12.59995,5.59998 0.59214,3.82363 2.40345,12.1832 8.39996,14.59994 4.5753,0.0845 14.66194,7.40662 4.69999,6.99997 0.31373,6.03796 12.53246,3.86672 14.79994,11.09996 0.39062,2.66946 3.1635,0.80095 4.79999,1.59999 z"
   id="Razan"
   inkscape:connector-curvature="0" /><path
   style="fill:#fefee9;stroke:#646464;stroke-width:0.80000001;stroke-linecap:butt;stroke-linejoin:miter;stroke-miterlimit:3.32551003;stroke-dasharray:none;stroke-opacity:1"
   d="m 367.19853,244.19903 c -0.444,-4.63773 -2.40327,-11.1301 -0.4,-15.79994 8.70196,-0.18652 1.0398,-9.72705 7.29997,-8.69996 6.74686,-4.326 3.88581,-12.36991 8.79997,-14.09995 4.47276,-6.2057 11.05007,-9.40482 14.79994,-16.19993 9.96707,-7.17294 -2.44041,-12.45279 0.1,-16.89994 -3.38787,-2.46736 -1.27888,-8.35972 -5.39998,-10.69995 -5.45112,-4.96754 -5.54391,-13.21963 -5.39998,-17.59993 -1.00807,-6.69478 -8.60713,-14.2769 -7.79997,-20.99992 -5.59974,-1.13747 -7.89506,-1.46702 -10.59995,5.79998 -0.32192,-4.59512 -7.85808,-6.18451 -10.79996,-0.9 -5.82056,-0.93013 -9.8574,7.01642 -14.59994,3.19999 -3.39926,1.48798 -8.1065,-5.90424 -14.09995,-1.49999 -1.34826,3.01605 0.53872,10.91382 -5.76661,10.07765 -11.58485,0.76827 -5.73717,5.06496 -4.53334,11.22226 4.96725,6.39762 0.97106,9.57276 -3.23284,12.85729 -7.45407,0.91182 -8.20122,9.23245 -14.96708,11.84261 -1.8871,3.35853 -4.82939,9.13988 -0.1,11.79995 3.03836,1.61871 -0.0314,8.82167 2.39999,11.59996 2.7716,4.81699 -3.63695,16.251 2.69999,18.69992 3.46008,3.20733 7.88215,-2.15773 6.59997,5.99997 0.39582,2.58097 6.87496,2.30253 10.43762,6.40776 1.87721,-7.32324 8.11268,0.12477 10.1623,-6.30776 6.69394,-1.7455 11.38082,8.01014 9.44807,14.54657 1.08546,7.38015 10.86061,3.36904 15.75024,6.28129 3.14249,0.6633 6.34359,-1.11504 9.20154,-0.62793 z"
   id="Tambov"
   inkscape:connector-curvature="0" /><path
   style="fill:#fefee9;stroke:#646464;stroke-width:0.80000001;stroke-linecap:butt;stroke-linejoin:miter;stroke-miterlimit:3.32551003;stroke-dasharray:none;stroke-opacity:1"
   d="m 277.49889,149.09941 c 8.21125,0.15724 4.67192,-11.02669 14.94635,-9.39973 3.77262,2.61216 8.03471,3.46479 11.95354,2.39976 6.76525,-0.70878 16.45923,0.18246 20.69992,-3.49999 9.13666,2.82717 -2.53934,-11.36106 6.54423,-9.46162 6.33042,-3.72587 7.93833,5.77274 13.25569,1.76165 2.79097,4.48717 10.36015,-3.94853 13.09995,-4.09998 7.34238,-6.32299 7.90182,2.9409 12.39995,0.89999 -0.5482,-10.78241 7.13843,0.12289 10.50094,-8.17923 7.62005,-3.67382 8.70214,-10.69804 10.79897,-17.02067 -6.24587,0.53885 -10.8358,-5.491483 -17.69993,-5.599973 -6.60379,-4.258474 -15.70865,9.814473 -17.86214,-2.779075 -0.86076,-7.815948 -12.85671,-7.122132 -13.33773,-14.820854 -12.82796,-1.557049 0.88897,-7.907734 3.40841,-12.454876 -0.70859,-2.2557 -0.0947,-9.762647 -0.44649,-15.107586 -7.35283,-5.983571 -1.61487,-11.837751 -6.66191,-16.737361 -9.71899,-2.272958 -3.96283,-18.686412 -14.89994,-19.299923 -6.01137,-3.573381 -12.15242,-5.574498 -19.59992,-3.099988 -4.34364,-0.257523 -10.57114,-7.4758842 -15.29994,-1.699993 -2.40051,8.739304 -10.17661,6.320811 -14.80684,10.964329 -3.22514,5.087966 0.53403,10.578119 1.3069,14.835568 -3.4693,1.900517 -5.68359,7.308587 -5.19998,12.39995 -1.66065,3.449466 -4.29889,10.214212 -0.50773,13.794965 2.08989,6.033635 -2.35128,3.898219 -3.89225,8.604947 -5.21182,-1.161051 -5.19423,5.036137 -7.69997,6.899972 -1.73675,6.668733 6.88916,2.412828 4.29998,9.69996 -0.80677,10.252422 -8.00679,-2.533525 -10.26658,2.642304 -9.01532,3.709224 -0.34099,5.774961 -2.53337,10.957644 -6.01163,1.19758 -2.27118,6.62516 -5.39998,7.89997 3.46182,5.30572 -6.10994,13.19131 -2.78392,14.07058 -2.59216,6.60251 10.14852,0.46997 8.8839,6.22934 -6.01058,-0.34429 2.32026,12.93144 -5.39999,9.39996 -0.25172,6.46479 9.72955,5.64002 11.69995,9.69997 2.81133,-2.0037 8.06143,2.13421 11.09996,-5.59998 4.83612,1.13883 2.58269,8.7587 9.39997,5.69997 z"
   id="Voronez"
   inkscape:connector-curvature="0" /><path
   d=""
   id="path28"
   inkscape:connector-curvature="0" /></g><g
     transform="matrix(1.25,0,0,-1.25,0,719.00001)"
     inkscape:label="border"
     inkscape:groupmode="layer"
     id="g3749"
     style="display:inline"><path
       style="fill:none;stroke:#646464;stroke-width:2.4000001;stroke-linecap:butt;stroke-linejoin:miter;stroke-miterlimit:3.32551003;stroke-dasharray:none;stroke-opacity:1"
       d="M 628.875 11.375 L 628.5 12.25 L 627.25 20.625 L 627.5 23.625 L 626.875 31.125 L 625.125 31.5 L 619.5 31.25 L 619.125 31.5 L 618.75 32.875 L 618.375 33.5 L 614.75 33.625 L 613.875 34 L 613.25 34.75 L 611 39.5 L 610.75 41.625 L 609.375 42.25 L 603.25 42.375 L 601.625 41.875 L 600.875 41 L 599.875 41 L 599.625 41.5 L 598.5 42.125 L 593.75 42 L 592.875 42.625 L 592.75 43 L 592.375 43.25 L 592 43.25 L 591.125 42.125 L 590.75 41.875 L 587 41.375 L 586.5 41.625 L 586 42.625 L 585.375 43 L 576.5 42.375 L 575.5 42.5 L 575.125 42.75 L 574.875 43.125 L 574 46.5 L 572.5 46.625 L 548.25 44.5 L 547.5 44.875 L 546.75 45.5 L 545.875 45.375 L 545 44.75 L 544.5 44.125 L 544 43.75 L 541.375 43.125 L 540.625 42.5 L 540 39.875 L 538.875 39.375 L 537.25 39.125 L 533.25 40.25 L 532.625 40.625 L 531.5 40.875 L 530 40.625 L 526.75 38.5 L 524.5 38.5 L 523.75 38 L 523.375 37.5 L 522.875 37.125 L 521.25 37.625 L 520.5 38.25 L 520 38.375 L 516.5 42 L 514.25 43.375 L 513.5 42.625 L 513.25 41.5 L 513.875 39.125 L 514 38 L 513.375 37.25 L 513.25 35 L 513 34.5 L 512.625 34.5 L 511.75 35 L 508.125 35.625 L 506.625 36.625 L 506.625 37.375 L 507.5 39 L 507.625 40 L 507.375 40.375 L 505.625 40.25 L 504.75 39.625 L 504.625 39.25 L 504.25 39 L 502 38.5 L 499.375 37 L 498.625 36.125 L 498.625 35.75 L 498.125 34.875 L 497.875 35 L 497.375 36 L 497.75 37 L 496.375 37.5 L 495.75 38.125 L 494.375 40.75 L 492.625 41 L 490.875 41.75 L 489.875 41.5 L 489.5 41.625 L 488.75 42.875 L 487.5 43.875 L 487.25 43.125 L 486.625 42.875 L 486.25 43.125 L 486.125 43.375 L 485.75 43.5 L 485.375 43.25 L 484.375 42.125 L 483.375 40.125 L 481.5 39.75 L 480.25 39.25 L 479.875 38.75 L 479.5 37.625 L 480.25 36.5 L 479.625 34.875 L 478.75 33.75 L 478.25 33.5 L 475.875 33 L 474.625 33.25 L 473.5 34 L 468.125 34.25 L 467 34.75 L 466.5 36.125 L 465.25 37 L 464.875 37 L 463 35.25 L 461.375 34.125 L 461.125 33.625 L 460.75 31.25 L 461.125 28.5 L 461 28 L 460.625 27.375 L 458.75 27.125 L 455.875 25.5 L 455.25 25.625 L 454 27.875 L 453.625 29.125 L 453.375 33.5 L 453.125 33.75 L 452.5 34.125 L 452 34.625 L 451.875 35.5 L 452.5 36.75 L 453.75 37.625 L 454.875 38 L 456.75 38.25 L 457.125 39.125 L 456.875 43.125 L 456.5 44.25 L 455.375 45.125 L 455 45.875 L 455 46.25 L 454.125 46.875 L 452.875 47 L 452.125 46.875 L 451.5 47 L 450 47.75 L 449 49 L 448.625 49.125 L 446.75 48.875 L 444.625 47.75 L 443.875 46.625 L 442.875 47 L 442 48 L 441.5 49.25 L 438.75 50.375 L 434.625 52.5 L 433.625 53.75 L 431.875 55.125 L 431.5 55.125 L 429.125 56.5 L 427.375 58 L 426.875 57.875 L 426.875 57.5 L 425.875 56.375 L 424.875 56 L 422.625 57.25 L 422.25 57.25 L 420.875 57.625 L 420.5 58.125 L 420.125 60.25 L 420.5 61.5 L 421.125 62 L 423 61.5 L 423.625 61.75 L 423.75 62.125 L 423.625 63.5 L 423.25 64.375 L 422.75 64.75 L 421.75 65 L 421.125 65.375 L 421 66.875 L 420.75 67.625 L 419.25 68.5 L 419.125 69 L 419.625 69.875 L 422.5 73 L 422.625 73.75 L 422.25 74.25 L 420.375 75.625 L 419.875 76.5 L 416.25 79.125 L 415 80.875 L 411 83.125 L 410.875 84.125 L 409.5 84 L 405.875 84.25 L 404.25 83.625 L 401.5 83.75 L 400.375 83.375 L 399.375 82.25 L 398.875 82.25 L 396.5 83.375 L 396.125 84.375 L 395.5 85 L 393.75 85.75 L 391.875 85.5 L 389.5 86.25 L 387.375 85.875 L 385.75 86.625 L 381.875 86.125 L 380.5 85.625 L 380 84.375 L 378.5 83.25 L 378.125 82.5 L 377.75 78.5 L 377.25 77.75 L 375.5 77.625 L 374.625 76.875 L 374.25 74.5 L 373.5 72.625 L 372.875 71.625 L 371.875 71.375 L 368.875 71.625 L 367.625 71.125 L 367.375 70.75 L 367 68.875 L 366.5 67.5 L 361.5 65.5 L 358 61.5 L 357.375 61.75 L 355.875 63.5 L 355.375 63.625 L 354.125 62.75 L 349.125 61.75 L 346.875 60.125 L 345.75 60 L 344.75 60.25 L 343.625 60.875 L 340.5 59.375 L 339 58.25 L 338.375 58.25 L 337.25 59.125 L 335.5 59.5 L 333.75 59.375 L 333.5 59.125 L 331.875 58.875 L 331.625 59.375 L 331.875 61.125 L 331 62.375 L 330.875 62.75 L 331.25 63.25 L 332.75 63.625 L 334.375 65.25 L 334.25 65.625 L 330.625 69 L 330.375 69.375 L 330.375 69.75 L 330.875 71.5 L 331 72.75 L 330.625 73 L 328.125 73.125 L 327.75 72.875 L 327.25 72.125 L 323.75 72 L 322.25 72.5 L 320.625 72.125 L 320.375 71.375 L 318.5 70.5 L 317.5 70.375 L 316.375 70.5 L 316.125 71.625 L 315.625 72.75 L 313.5 75.375 L 296.375 73.375 L 295.125 74.625 L 294.625 75.375 L 293.5 77.875 L 292.125 79.875 L 291 81 L 290.25 81.5 L 289.75 81.625 L 288.5 80.375 L 287.5 80.25 L 284 80.625 L 283.5 80.875 L 283.25 81.25 L 282.375 86.625 L 281.875 88 L 280 90.125 L 279.625 90.25 L 278.375 88.625 L 276.25 86.875 L 274.75 84.625 L 274.625 84.125 L 272.5 83.125 L 271.625 82.375 L 270.75 81.25 L 269.75 80.375 L 269.5 79.625 L 267.125 76.875 L 266.25 75.625 L 261.875 70.375 L 261.75 67.125 L 259.625 64.375 L 259.375 64.25 L 258.375 64.125 L 257.25 64.5 L 255.25 66.125 L 254.375 66.5 L 252.5 66.5 L 250.75 66 L 249.375 65.875 L 248.75 66 L 246.75 67.5 L 246.125 68.375 L 247.375 71.75 L 247.375 72.75 L 246.625 73.75 L 245.75 74.375 L 245.25 74.375 L 243 73.5 L 242.875 73.625 L 243.375 76.125 L 242 76.25 L 241.75 76.5 L 240.625 79.625 L 238.375 82.5 L 235.625 83.375 L 235.125 84 L 235.375 84.375 L 235.75 85.625 L 234.875 87.25 L 234.5 87.5 L 232.75 87.625 L 229.125 89.25 L 228.75 89.75 L 228.25 89.875 L 228 89.75 L 227.75 88.625 L 226.875 88 L 226.25 87.375 L 225.25 87 L 224.5 87.25 L 224.125 88.625 L 223.875 88.75 L 221.875 87.875 L 221.5 88.875 L 220.75 89.375 L 219.125 88.875 L 218.625 89 L 215 91.25 L 213.25 91.875 L 212.625 92.75 L 213.125 94.75 L 208.5 95.125 L 207.125 94.375 L 206.25 94.125 L 198.25 93.125 L 197.125 93.25 L 195.375 94.25 L 193.125 95.25 L 192.5 95.25 L 190.875 94.375 L 190.25 94.625 L 189.75 95.5 L 188.125 97.125 L 187.125 97.5 L 185.75 97.375 L 185.375 98 L 186.375 99.375 L 186.375 99.875 L 185.625 101.875 L 186 103.75 L 185.75 105.875 L 182.5 107.5 L 181.125 108.75 L 178.75 109.25 L 177.375 110.375 L 177 110.5 L 176.625 110.375 L 175 108.875 L 174 109.125 L 173.5 108.25 L 172.75 107.875 L 168.875 108.5 L 166.75 107.5 L 166.25 107.5 L 164 108.625 L 163.5 109.125 L 162.625 110.5 L 163.875 112.25 L 163.875 112.75 L 163.375 113.25 L 163.125 113.75 L 163.625 115.75 L 163.875 117.625 L 163.625 118.125 L 162.75 118.75 L 162.125 118.875 L 158.125 116.5 L 156.375 116.5 L 156.125 116.25 L 155.25 114.25 L 141.125 109.75 L 138.625 110.875 L 137.5 111.125 L 137 111 L 136.75 110.625 L 136.625 109.875 L 136 109 L 135.375 109 L 133.875 111.375 L 133.125 112.25 L 130.625 114.125 L 127.625 114.25 L 124.25 113.25 L 122.625 113.625 L 122 114.125 L 121.125 115.25 L 121.5 116.625 L 121.375 117.125 L 120.875 117.375 L 120.5 117.25 L 119.5 117.375 L 117.875 119 L 117.125 120.375 L 117.375 120.875 L 118.625 121.625 L 119.5 121.875 L 120.75 121.625 L 121.875 123 L 122.5 123.375 L 123 124 L 123.375 125.625 L 122.875 126.75 L 123.375 128.5 L 123.625 129.75 L 123.25 131.125 L 122 132.75 L 118.75 134 L 118.625 134.375 L 118.375 137.25 L 117.75 139.625 L 117.875 141.625 L 117 143.625 L 115.5 145.25 L 114.625 145.875 L 113 145.75 L 112 146.125 L 108.625 148.125 L 108.25 148.875 L 109 150.875 L 109 151.625 L 107.875 154.5 L 106 154.875 L 105.25 155.25 L 105 155.75 L 105.375 158.25 L 105.625 159.5 L 107.125 162.25 L 107.375 163.5 L 105.5 163.75 L 105 163.5 L 104.5 162.125 L 99.375 161 L 99.25 161.125 L 99.375 162.125 L 99 162.75 L 97.75 163.125 L 94.875 162.5 L 93.25 161.75 L 91.125 162 L 89 161.375 L 88 161.5 L 86.75 163 L 86.25 163.875 L 83.375 165.375 L 83 165.875 L 83.125 167.375 L 82.5 169.375 L 82 170.375 L 80.5 171.375 L 79.625 171.75 L 78.375 171.875 L 77.625 172.25 L 76.625 173.125 L 76.25 174 L 75.125 174 L 73.5 174.625 L 72.25 176.75 L 71.625 177 L 70.25 176.75 L 69 175.875 L 68.25 174.625 L 66.875 174.125 L 66.125 174.25 L 66 174.75 L 66.125 175.25 L 66.875 176.25 L 67 179.125 L 66.75 179.875 L 65.625 180 L 64.5 180.5 L 63.25 180.375 L 61.25 180.625 L 60.625 180.875 L 60 182.5 L 58.125 183 L 55.75 184.875 L 54.625 185.25 L 54.375 185.5 L 54.25 186.125 L 53.75 187.25 L 53.125 187.5 L 51.625 185.375 L 49 186.75 L 48 186.875 L 44.875 186 L 44.625 186.125 L 44.375 186.75 L 43.375 187.875 L 43.125 188.375 L 42.625 190 L 43.125 192.75 L 41.875 193.125 L 40.875 194.75 L 38.5 196.375 L 37.875 197.5 L 37.5 197.625 L 35.75 197.25 L 33.875 197.75 L 31 197.125 L 30 196.25 L 28.75 195.5 L 26.375 195.875 L 20.875 198.125 L 20.25 198 L 19.75 197 L 19 196.5 L 16.125 195.75 L 15.75 198.125 L 15.25 199.125 L 14 200.125 L 13.125 200.375 L 12.25 200.25 L 12 200.5 L 12.375 202.625 L 12.25 205 L 11.5 207 L 10.375 206.5 L 8.125 207.125 L 7.625 208.125 L 7.5 209.5 L 7.875 209.75 L 8.75 209.875 L 9.125 210.125 L 8.75 211.875 L 8.875 212.625 L 10.625 216.375 L 11.75 217.375 L 12.125 217.375 L 12.75 217.125 L 13.375 215.375 L 13.625 215.25 L 14.25 215.125 L 14.75 215.875 L 15.125 216.125 L 17.75 215.125 L 18.25 215.25 L 18.75 215.875 L 19.375 219.375 L 16.875 226.625 L 16.625 228.375 L 16.75 229.25 L 17.25 229.625 L 18.625 229.75 L 21.875 231.25 L 23.625 231.25 L 24.25 231.625 L 24.875 232.625 L 25.125 237.875 L 25.5 238.75 L 25.875 238.875 L 26.5 238.75 L 27.75 238.375 L 28.25 238.75 L 28.375 239.625 L 29.75 241.125 L 35.75 241.625 L 35.875 242.5 L 35.375 248.875 L 35 254.25 L 35.5 255.75 L 35.875 257.75 L 36.375 258.25 L 36.5 258.875 L 36.25 259.25 L 36 260.5 L 35.125 260.75 L 34.625 261.375 L 33.625 261.75 L 33 263 L 30.75 264.375 L 29.875 265 L 30.25 265.75 L 31.25 267 L 32.625 270.125 L 32.25 274.125 L 32.875 276 L 34.375 279.375 L 34.75 281.25 L 33.875 281.75 L 33.125 281.75 L 32.75 281.5 L 32.625 280.875 L 30.25 281 L 29.125 281.625 L 28.625 281.5 L 28.375 281 L 27.5 280.625 L 25.125 281.25 L 24.625 282 L 24.125 281.875 L 24 281.125 L 23.625 280.625 L 18 278.5 L 17.5 283.125 L 16.625 283.625 L 15.875 284.625 L 15.25 284.875 L 14.25 286 L 13.25 290 L 12.5 291.625 L 13 294.625 L 12.125 297.125 L 12.875 297.5 L 12.625 298.375 L 11.625 299.25 L 11.375 300.375 L 11.75 301.625 L 12.875 303.375 L 12.875 304.75 L 12.375 305.625 L 10 307.25 L 8.625 309.25 L 8.125 310.5 L 8 311.875 L 8.375 312.75 L 9 313.25 L 10.5 314 L 11 314.875 L 11.625 317.5 L 12.25 318.25 L 14 319.75 L 14.625 320.625 L 14.375 321.25 L 14.5 321.625 L 15 321.875 L 15.5 322.5 L 15.375 323.625 L 15.125 324 L 15 324.625 L 16.375 328.625 L 16.375 330 L 15.375 330.25 L 13.5 329.75 L 12.625 329.875 L 12.375 330.75 L 13.375 332.625 L 13.625 333.375 L 12.875 334.75 L 12.125 335.25 L 9.75 335.75 L 8.75 336.5 L 9.25 338.375 L 9.25 340 L 8.625 341.125 L 6.875 343.375 L 6.75 345.25 L 7 346.375 L 7.625 346.875 L 9.25 347.375 L 15.375 351.875 L 16 353 L 16.125 354.25 L 17 354.125 L 20.375 354.5 L 21.25 356.5 L 22.875 357.75 L 21.75 360.375 L 21.625 360.375 L 19.75 363.625 L 18.75 366.625 L 19.875 367.625 L 22.75 368.375 L 23.25 369.375 L 24.5 369.75 L 25.125 371.125 L 26 374.625 L 27.5 376.75 L 27.75 377.875 L 28 381.875 L 28.5 383.875 L 29 384.875 L 36.25 390.75 L 37.25 391.25 L 39.375 391.75 L 42.625 393.625 L 43.875 394 L 45 394 L 45.875 394.75 L 46.25 395.5 L 46.75 397.375 L 47.25 397.5 L 48.5 396.75 L 48.875 397 L 48.875 397.25 L 49.75 401.25 L 49.625 401.75 L 49.5 403.375 L 49 404.875 L 48.375 408.875 L 47.625 410.625 L 46.125 413.125 L 45.75 414.875 L 47.5 414.875 L 50.875 416.125 L 59.25 413.875 L 60.125 414.125 L 62.5 415.75 L 67.5 417.25 L 68.875 418.375 L 70.125 420.125 L 70.75 420.5 L 72.625 420.375 L 73.5 420.5 L 74.25 421 L 75 422 L 75.375 423 L 75 424 L 71.75 425.875 L 72.25 429.625 L 73 431 L 73.875 432.125 L 75 432.875 L 77 433.75 L 78 434.5 L 78.875 436.25 L 79.125 436.375 L 79.5 436.25 L 79.75 435.75 L 80.5 435.625 L 81.125 435.75 L 81.75 436.125 L 81.375 437.375 L 81.625 438.25 L 82.125 438.375 L 83.25 437.875 L 83.75 437.875 L 84.5 439.5 L 84.5 440.125 L 83.875 444.5 L 84.375 446.75 L 83.625 447.375 L 81.75 446.75 L 79 447.375 L 79.625 448.5 L 78.5 449.25 L 77.25 449.5 L 76 449.25 L 75 448.75 L 74 449.125 L 73.75 449.875 L 74 450.625 L 75 450.875 L 74.625 452.25 L 72.75 455.75 L 72 456.5 L 69.875 457.375 L 68.625 458.625 L 67.625 460.125 L 66.5 461.25 L 64.5 461.125 L 64.25 461.375 L 64.125 462.875 L 63.875 463.125 L 63.375 463 L 62 463.25 L 60.625 464.25 L 59.25 464.125 L 56.25 463 L 55.125 463.125 L 54.125 463.625 L 53.125 463.75 L 52.25 463.5 L 50.125 462.25 L 49.625 462.125 L 48.25 462.25 L 47.75 462.125 L 47.125 461 L 46.75 458.125 L 46.25 457 L 45.5 456.5 L 43 456.375 L 40.5 455.375 L 39.75 455.25 L 39 455.5 L 37.5 456.375 L 36.5 456.375 L 34.625 456 L 32.75 456 L 31.25 457.25 L 30.5 460.625 L 30.75 463 L 30.625 463.75 L 30.25 464.125 L 28.875 464.625 L 26.875 467.875 L 26 468.875 L 29 471.375 L 30.75 476.125 L 31.5 477.625 L 32.75 478.875 L 34.125 479.75 L 36.25 480.25 L 36.625 481.75 L 37.5 483.75 L 38 484 L 38.5 484.625 L 38.75 485.875 L 38.875 488.875 L 37.875 490.25 L 35.25 491.75 L 35.75 492.875 L 37.5 495.375 L 38.625 498.25 L 39.125 499 L 40.625 500.375 L 41.125 501.125 L 41 501.75 L 40.375 501.875 L 38.375 501.625 L 39 502.75 L 38.375 503 L 38 503.625 L 38.125 504.25 L 38.625 504.875 L 39.5 505.625 L 39.625 507.375 L 39.375 511.125 L 40.375 513.25 L 40.375 514.5 L 40.125 515.375 L 39.25 517 L 38.75 517.5 L 39.875 519.375 L 40.5 520.125 L 41.875 521 L 43.375 521.25 L 44 521.625 L 43.5 522.125 L 43.125 524 L 43.5 525.75 L 45.875 527.625 L 46.5 528.625 L 46.625 530 L 46.5 532 L 49 531.75 L 50.25 532.125 L 51.25 533 L 51.625 536.5 L 52.375 537 L 53 536.875 L 55.125 535.75 L 56.625 535.5 L 59 536.25 L 59.75 536.125 L 65.125 533.375 L 67 531.875 L 68.125 529.25 L 68.625 525 L 69 523.875 L 69.375 523.375 L 69.875 523.125 L 70.25 522.625 L 70.5 521.875 L 70.375 521.25 L 69.375 519.125 L 70 516.75 L 71.625 516.375 L 75 517.75 L 76.875 517.125 L 84.75 521.5 L 86 521.5 L 88.25 520.875 L 89.5 520.875 L 91.375 522.25 L 92 522.375 L 92.75 521.875 L 96.875 518 L 97.625 517.625 L 98 517.625 L 98.5 518 L 98.875 517.875 L 99.625 516.5 L 100.75 516 L 102.25 514.125 L 103 513.625 L 103.5 513.5 L 107.375 514.25 L 110.625 514.375 L 111.625 515.25 L 112.375 515.625 L 113.125 515.5 L 114.75 514.25 L 115.5 515.375 L 115.25 518 L 116 519.125 L 116.875 519 L 119.5 516.125 L 123 514.375 L 124.875 514 L 126.625 514.125 L 127.625 514.5 L 128.125 515.125 L 128.375 516.125 L 129 517.25 L 129.875 518.125 L 131.5 519.25 L 132.25 520.375 L 133.75 523.5 L 136.375 525.25 L 137 526.125 L 138.25 528.625 L 138.375 530.125 L 137.75 531.625 L 137.875 535.5 L 138.125 536.875 L 139.5 539.5 L 139.625 540.75 L 139.25 541.75 L 139.25 542.375 L 141.25 542.375 L 142 543 L 143.5 545 L 144.25 545.625 L 144.5 546 L 144.75 547.375 L 145.25 547.625 L 146 547.25 L 146.5 547.25 L 147.125 547.75 L 148.5 549.375 L 149.25 549.875 L 150.25 551 L 150.75 551.625 L 151.875 554.375 L 151.875 557.25 L 150.375 559.125 L 149.625 559.375 L 147.25 559.25 L 140.5 561 L 139 562 L 138.625 563.625 L 139 564.375 L 140.5 564.75 L 141 565.125 L 141.5 567.75 L 143.5 570.375 L 144.375 572.5 L 144.375 574.75 L 144 576 L 143.875 577.375 L 144.125 578 L 144.125 579.25 L 143.75 579.625 L 142.875 579.875 L 142.625 580.25 L 143.25 581.5 L 144.625 582.75 L 145.25 583 L 146.625 583.125 L 147.375 582.625 L 147.75 585 L 146.75 587.25 L 145.125 589.125 L 142.875 590.875 L 145.75 592.25 L 146.625 592.5 L 147.375 592.125 L 148.875 590.75 L 150.25 590.375 L 151.75 590.625 L 155.875 592.25 L 158.375 591.75 L 159.625 592 L 160.25 592.625 L 160.375 593.5 L 161 595.625 L 161.625 596.25 L 162.25 596.5 L 165.25 596.75 L 168 596 L 171.25 594.5 L 173.125 593.25 L 173.75 593.25 L 175.125 594.125 L 176 594 L 176.75 593.625 L 177.625 593.5 L 178.375 593.75 L 178.875 594.5 L 180.125 601.75 L 180.875 604.125 L 182.125 605.25 L 183.375 605.375 L 186.125 604.75 L 188.25 605.125 L 189 605.625 L 189.375 606.375 L 189 607.5 L 188.375 608.125 L 186.25 608.625 L 186.375 610.875 L 186.5 612 L 186.875 612.375 L 187.875 612.625 L 188.25 613 L 188.75 614 L 188.875 614.75 L 188.75 616.625 L 190.25 619.625 L 190.25 622.125 L 190.875 622.75 L 191.875 623.375 L 192.625 624.5 L 193 626.5 L 192.875 629.75 L 193.875 631 L 190.75 632.625 L 190.125 633.375 L 192.125 642.625 L 193 644.375 L 194.25 645 L 195.125 645.125 L 196 645.5 L 196.75 646.125 L 197.25 647.25 L 197.625 648.875 L 197.625 650.125 L 197.875 651.25 L 198.75 652.375 L 199.5 653 L 200.375 653.375 L 202 653.75 L 202.75 653.5 L 203.5 652.625 L 203.875 651.75 L 204.5 650.875 L 206 650.5 L 206.5 650 L 207.25 648.75 L 207.75 648.25 L 208.5 648 L 212.25 647.5 L 219.125 648.125 L 220.25 648.75 L 220.625 650.125 L 221.75 650.75 L 225.625 657.75 L 226.625 658.25 L 227.5 658.25 L 229.375 657.125 L 230.125 656.25 L 230.875 656 L 232.125 656.75 L 233 657 L 234.125 657.875 L 235.75 658.25 L 236.375 658.875 L 236.125 661.375 L 236.25 662 L 236.875 662.625 L 237.625 663 L 238.625 663.125 L 239.5 663 L 240.25 662.5 L 241.25 660.375 L 242.125 659.25 L 248.75 654.875 L 251.375 653.875 L 254 653.625 L 256.75 654.125 L 262.625 652.25 L 266.125 648.5 L 267.25 648 L 271.25 647.375 L 272 647.875 L 272.625 649.625 L 273.125 651.875 L 273.875 653.75 L 277.375 655.625 L 278.625 657.125 L 278.625 660 L 278.125 662.375 L 278.5 663.625 L 279.875 665.25 L 283.625 671.875 L 285.125 672.875 L 288.25 674.5 L 289.75 675.625 L 291.125 677 L 292.375 678.75 L 294.375 682.75 L 294.5 684.125 L 297.125 682.25 L 297.625 682.125 L 299.25 682.875 L 301.125 681.375 L 301.375 678.375 L 301 675.125 L 301.375 673.125 L 302 672.875 L 304.625 673.125 L 305.75 672.875 L 306.375 673.125 L 307 673.875 L 308.625 678.625 L 309.5 679 L 311.875 679.5 L 312.875 680.25 L 314.25 680.875 L 317.125 680.25 L 319.125 680.625 L 320.875 679.875 L 321.375 682.25 L 321.875 683.25 L 324.25 685.125 L 328.375 686.5 L 329.75 688 L 330.75 689.625 L 331.75 690.875 L 335.5 690.625 L 336.25 690.375 L 337 689.625 L 338.875 686.625 L 340.5 686 L 341.5 687 L 343.75 693.5 L 344.625 694.875 L 345.75 695.75 L 347.25 696.125 L 348.875 695.75 L 350.375 694.875 L 351.875 694.625 L 354.125 696 L 356.5 696.375 L 357 697.125 L 358 701.625 L 359 704 L 360.25 704.875 L 361.625 705.375 L 363.25 706.25 L 365.375 708.5 L 366.125 708.875 L 367.25 709 L 368.5 708.625 L 370.625 707.5 L 373 704.75 L 374 704.375 L 374.75 704.375 L 378.625 705.5 L 378.75 705.75 L 379.625 704.875 L 380.75 703.25 L 382 703.125 L 385.5 703.5 L 390.375 705.125 L 392 705.375 L 393.625 705.25 L 394.875 704.75 L 396.125 703.875 L 397 703 L 397.5 702.125 L 398.375 701.625 L 401.25 701.125 L 402.75 701.375 L 403.25 701.25 L 405.25 699.375 L 406.125 698.875 L 407 698.625 L 408.5 698.75 L 409.25 698.625 L 409.875 698 L 415 691.5 L 415.5 689.75 L 415.5 686.375 L 416.125 683 L 416.75 681.625 L 418.75 678.375 L 420.875 676.125 L 423.875 675.25 L 425.625 674 L 427.75 671.5 L 428 670.75 L 427.875 669.875 L 427 668.375 L 425.25 666.75 L 425 665.875 L 425.25 664.875 L 428.25 661.625 L 433.125 652.625 L 434 650.125 L 433.75 649.125 L 433.125 647.875 L 430.625 644 L 430.5 642 L 431 640.5 L 431.875 639.125 L 432.375 638.75 L 434.125 638.125 L 434.5 637.75 L 434.75 636.375 L 434.625 635.625 L 433 635.5 L 430.875 635 L 430.25 634.625 L 429.75 634 L 428 629.125 L 426.375 627.125 L 421.5 624.625 L 420.5 623.75 L 420.375 623.5 L 420.5 623.25 L 428.5 619.875 L 428.875 619.5 L 429 619.125 L 428.875 618 L 429 617.25 L 429.375 616.5 L 431 614.25 L 435.375 611.25 L 439.125 609.375 L 440.875 608.125 L 443.125 606.375 L 444.5 603.5 L 445.75 599.5 L 446.875 596.625 L 447.875 595.125 L 451.5 594 L 452.625 594.125 L 454.625 595.375 L 456.25 597.125 L 459.25 598.375 L 463.75 599 L 464.875 599 L 466.375 598.5 L 467.5 597.875 L 468.25 597.25 L 476.375 596.5 L 477.375 595.625 L 479.75 592.5 L 480.25 592.25 L 482.75 591.5 L 484.25 591.75 L 487.125 591.75 L 488.25 592.125 L 489.625 591.5 L 489.625 590.875 L 488.25 589.5 L 487.625 588.125 L 487 585.375 L 487.125 584.625 L 487.75 583.25 L 488 582.125 L 485.5 578.25 L 482.75 575 L 474.625 568.375 L 473 566.125 L 474 565 L 472.875 562.5 L 472.625 561.375 L 473.125 560.25 L 479.5 552 L 480.875 547.125 L 480.75 545.75 L 481.5 540.25 L 482.5 539.375 L 483.75 538.75 L 485.625 538.125 L 485.5 537.25 L 484.875 536.625 L 483.5 533.625 L 483.375 532.5 L 483.625 530 L 483.5 527 L 484.25 525.625 L 487.625 522.5 L 490.25 517.875 L 490.5 516.75 L 490.125 513.5 L 491.125 512.875 L 492.375 513.25 L 493 513.75 L 493.25 513.75 L 493.875 513.5 L 494.25 512.875 L 494.875 512 L 496.5 511.125 L 495.125 508.375 L 493.375 504.25 L 496 504.125 L 496.875 503.75 L 497.25 503.375 L 497.125 503 L 495.625 502.125 L 494.875 500.5 L 495 500.25 L 498.75 498.25 L 499.25 497.75 L 501 495.125 L 502.25 494.625 L 502.875 493.625 L 501.75 490.625 L 497.125 482.25 L 496.5 481.5 L 494.75 480.125 L 494 479.125 L 492.25 475.75 L 490.25 472.5 L 489.625 472 L 487.25 470.875 L 484.25 469.125 L 483.375 468.375 L 480.375 463.875 L 478.625 462 L 476.75 461.375 L 475.25 461.5 L 474 458.375 L 474.25 457.625 L 475 457.375 L 475.625 456.875 L 475.875 456.25 L 475.625 455.5 L 474.125 453.625 L 469.125 446 L 467.625 444.375 L 467 444.25 L 466.625 444.5 L 465.75 444.875 L 464.125 444.75 L 463.625 444.25 L 463.375 442.875 L 463.625 441.75 L 464 441.125 L 465.875 440 L 466 439.375 L 465.125 438.375 L 464.25 437 L 460.5 434.875 L 460 433.5 L 459.75 433.25 L 458.5 433.5 L 457.625 433.375 L 457.375 433 L 457.5 424.875 L 458.25 424.25 L 458.375 421.375 L 458.125 420.5 L 457.125 419.375 L 457.125 418.625 L 458.125 417.625 L 458.375 417 L 459.125 416.25 L 459.5 415.625 L 459 413.75 L 461.875 413 L 465.875 411.25 L 467 409.5 L 468.375 406.625 L 469.375 405.375 L 471.125 404.5 L 471.75 404 L 472 403.125 L 471 399.875 L 469.875 398.75 L 467.625 397.625 L 464.875 395.625 L 464.125 394.25 L 464.875 392.25 L 465.375 391.625 L 466.125 391.375 L 466.625 391.625 L 466.5 392.375 L 465.75 393.125 L 465.875 393.5 L 466.25 393.875 L 468.125 394.375 L 471 393 L 471.25 393.125 L 471.5 394.125 L 471.875 394.5 L 473.75 395.125 L 474.875 395 L 475.375 394.5 L 476 393.375 L 474.75 391.75 L 474.625 390.875 L 477.375 388.375 L 477.5 387.75 L 477.25 387.5 L 474 385.5 L 472 383.125 L 471.375 382.75 L 471 382.75 L 469.375 383.25 L 469 383.875 L 468.75 385.875 L 468.5 386.375 L 466.125 387.625 L 464.5 388.875 L 464.125 389 L 463 388.5 L 462.5 388 L 462.5 387 L 461.875 386.125 L 461.75 384.75 L 460.875 382.625 L 463.25 384.125 L 464.625 384.5 L 469.25 382.125 L 470.5 380.5 L 472.625 379.5 L 473.875 376.25 L 474.5 375.375 L 478 375.125 L 478.75 374.625 L 478.875 373.75 L 477 370.375 L 476.75 370.25 L 475.375 370.625 L 475.25 370.375 L 475.875 366.125 L 476.125 366 L 477 365.875 L 477.875 366.875 L 478.375 367 L 479.25 366.25 L 479.625 365.625 L 479.5 365.25 L 478.5 363.875 L 478.25 363.125 L 478.375 362.875 L 479.75 362.5 L 481.25 360.875 L 481.375 359.75 L 481 359.125 L 479.625 358.625 L 479.375 358.25 L 479.125 357.125 L 478.75 356.625 L 478 356.375 L 477.75 356 L 477.875 355.375 L 478.875 354.375 L 479.125 353 L 478.375 351.25 L 478.125 351.25 L 476.25 353 L 475.875 353 L 475.5 352.75 L 474.625 351 L 473.875 350.375 L 473.5 350.375 L 472.875 351.375 L 471.875 350.625 L 470.25 349.875 L 470.625 347.875 L 470.25 347.25 L 469.25 346.625 L 468.875 345.625 L 469.125 344.875 L 471.625 341.5 L 472.125 340.5 L 472.5 337.875 L 472.25 336.875 L 471.5 335.75 L 471.25 335 L 471.25 334.25 L 472.75 331.875 L 472.75 331.625 L 471.75 330.875 L 470.75 330.75 L 469.5 331.375 L 467 331.625 L 466.125 332 L 465 332.125 L 464 332.5 L 463.375 333 L 462.25 334.375 L 461.25 335 L 460.25 335.125 L 457.625 334.125 L 455.125 332.625 L 452.875 332 L 452.25 331.5 L 452.125 330.75 L 453.875 330.125 L 453.75 329.625 L 452.75 328.875 L 452.625 328.125 L 453.25 326.75 L 453.125 325.625 L 452.625 325.375 L 449.125 327.5 L 447.75 327.375 L 446.25 326.625 L 445.625 326.125 L 445.25 325.625 L 444.875 323.875 L 445 323.375 L 445.875 322.875 L 446.625 322 L 448.5 320.75 L 449.75 317.875 L 449.5 317.125 L 448.25 315.625 L 448 315 L 448.75 314.375 L 449.75 313.875 L 450.875 312.875 L 451.75 312.375 L 452 311.75 L 450.875 308.75 L 451.75 308.25 L 453 308.375 L 453.625 308.25 L 454.125 305.75 L 454.75 305.125 L 456.625 304.375 L 457.375 303.75 L 458.25 302.5 L 458.875 301 L 458.875 299.875 L 458.5 299.5 L 456.875 299 L 456.375 298.375 L 456.25 297.875 L 456.5 294.375 L 456.375 293.5 L 455.375 292.25 L 455.125 290.25 L 455.25 289.5 L 455.75 289.25 L 457.875 289.5 L 458.25 289.25 L 458.25 288 L 457.75 287.625 L 457.375 287.125 L 457.875 285.75 L 458.5 285.125 L 459.25 284.875 L 459.875 284.375 L 460.25 282.375 L 461.5 282.125 L 463.5 279.25 L 464.75 278.375 L 468.75 277.875 L 469.125 277.5 L 470.375 274.75 L 471 274.125 L 472.375 273.375 L 473 272.75 L 472.75 269.75 L 473.125 269 L 473.5 268.75 L 474.75 266.625 L 476.5 264.125 L 476.75 264 L 477.25 264.125 L 478.25 264.75 L 478.375 265.25 L 478.75 265.875 L 479.25 265.75 L 479.5 265.375 L 479.75 263.875 L 481 262.875 L 481.25 262.25 L 481.25 261.125 L 480.75 259.75 L 480.375 258.125 L 480.5 256 L 480.875 254 L 482 253 L 484.375 252.125 L 488.125 252.25 L 489.625 252 L 491.25 250.75 L 491.25 249.75 L 490.75 249.25 L 490.25 249 L 486.125 248.875 L 484.375 248.125 L 483.625 247.25 L 483.375 246.5 L 483.375 245.625 L 484.125 242.375 L 483.875 241.25 L 482.5 238.75 L 481 236.875 L 477.125 233.625 L 477 233.375 L 479.125 232 L 479.375 231.375 L 478.5 230.25 L 478.5 229.875 L 478.75 229.5 L 479 229.375 L 481.125 229.25 L 482.875 229.5 L 485 230.25 L 487.875 230.375 L 488.375 230.125 L 488.75 229.5 L 489.125 227.875 L 488.875 227 L 487 226.375 L 486.625 225.625 L 487.25 224.25 L 489.125 222.75 L 489.625 222.125 L 489.375 220.625 L 489.625 219.5 L 489.625 218.375 L 489.375 217.5 L 489 217.625 L 488.375 217.875 L 488.125 217.5 L 487.625 217.25 L 487.125 218.375 L 486.875 218.375 L 485 217 L 484.875 216.625 L 485 214.75 L 485.375 213.25 L 486.25 212.125 L 486.625 211.25 L 485.75 210.125 L 485.75 209.5 L 486.625 207 L 487.375 205.875 L 489.375 206.25 L 490.125 206 L 492.5 204.25 L 492.875 204.125 L 493.625 204.5 L 495.25 204.75 L 498.125 203.75 L 498.875 202.75 L 500.25 202 L 500.625 202.125 L 501.375 202.875 L 502 203.25 L 504.54297 203.11914 L 503.27148 198.1582 L 501.05078 193.31055 L 498.02148 189.67578 L 496.81055 184.22266 L 497.21289 179.375 L 499.43555 174.93359 L 501.85938 168.67188 L 504.68555 165.23828 L 504.15625 163.71875 L 504.62305 163.12695 L 505.12305 161.75195 L 505.37305 158.75195 L 505.74805 157.62695 L 507.24805 156.87695 L 509.99805 154.75195 L 510.74805 153.75195 L 511.74805 151.25195 L 512.74805 149.87695 L 514.74805 149.37695 L 516.24805 148.00195 L 516.62305 148.00195 L 516.49805 150.62695 L 515.87305 152.00195 L 514.74805 153.37695 L 514.87305 154.12695 L 517.62305 155.62695 L 518.87305 157.62695 L 521.24805 158.75195 L 521.62305 159.12695 L 522.24805 160.62695 L 522.24805 161.12695 L 522.25 161.12695 L 522.25 161.125 L 524.375 162.25 L 527 163.5 L 533 163 L 535.625 162 L 537.75 160.5 L 540.5 159.625 L 541.875 158.625 L 545.25 157.625 L 549.625 154.25 L 550.625 152.125 L 551.875 151.375 L 552.125 150.875 L 552.25 149 L 552.875 147.875 L 555.625 145.25 L 557.5 144.5 L 559.375 144.75 L 562.125 144.625 L 562.75 144.25 L 562.875 143 L 565.25 138.75 L 567.5 132.875 L 567.25 131.75 L 565.375 128.875 L 564.625 127.25 L 564.625 126.25 L 565 125.25 L 565 123.625 L 565.25 122.75 L 566.125 121.375 L 566.875 119.625 L 567.5 119 L 569.625 118.75 L 571.75 119 L 572.5 118.375 L 572.625 118.125 L 573.625 118 L 579.125 118.625 L 580.5 119.125 L 581.625 119.75 L 582.875 120.125 L 583.875 121.125 L 584.625 121.375 L 591.25 121.75 L 591.5 122 L 592.875 124 L 593.5 126.125 L 594.25 126.875 L 595 128.5 L 596 128.625 L 597.125 128.25 L 600.375 126.5 L 601 126 L 601.625 123.5 L 602 122.75 L 602.5 122.375 L 604.375 121.875 L 604.875 121.5 L 605.375 120.875 L 605.875 120.75 L 608.75 121 L 609.25 120.875 L 609.75 120.5 L 611.625 119.875 L 619.875 119.5 L 626.25 119 L 626.375 118.125 L 626.25 117.375 L 625.25 116.75 L 625.125 116.125 L 626.25 113.875 L 626.625 112.125 L 627.125 111.125 L 628.875 109.75 L 629.125 109.375 L 629.25 108.375 L 628.875 105.125 L 629.125 102.875 L 630.125 101.875 L 631.625 101.125 L 631.75 100.75 L 631.625 100.25 L 630.875 99.875 L 630.25 100.25 L 629.5 100.25 L 629 99.75 L 629.625 98.75 L 630.875 97.875 L 632.125 97.375 L 633.875 97 L 634.75 95.375 L 635.875 94.5 L 636.25 93.375 L 636.125 92.625 L 634.75 91.5 L 634.625 91.25 L 634.75 90.5 L 636.125 88 L 635.875 86.5 L 636.25 85.375 L 637.375 84.25 L 637.875 84 L 639 84.25 L 639.375 84.875 L 639.625 85 L 641.75 84.375 L 645 83.75 L 647.25 82.5 L 651.125 82.125 L 652.5 81.375 L 652.875 80.75 L 652.625 76.875 L 652.75 76.25 L 654.25 74.25 L 655.625 73.125 L 656.75 71 L 657.625 70.5 L 658.875 71 L 660.25 72.125 L 660.625 72.25 L 662.75 71.875 L 665.125 68.75 L 664.875 68.375 L 663.875 67.75 L 663.75 67.25 L 664.25 65.625 L 664.375 64.75 L 663.625 62.875 L 663.875 61.75 L 664.375 61 L 664.75 60.875 L 668.125 61.5 L 670.125 60.5 L 670.75 60.625 L 671.25 61.5 L 670.875 62.75 L 671.125 62.875 L 674 62.125 L 675.875 62 L 676.375 61.5 L 676.5 61.125 L 676.375 60.5 L 675.125 58.125 L 674.25 55.25 L 674.5 53.625 L 675.25 51.25 L 675.125 50.875 L 673.5 49.625 L 671.5 47.25 L 670.875 46.75 L 670.375 46 L 670 43.75 L 668.125 44.75 L 667.75 44.625 L 662 39.875 L 661.625 38 L 662.5 30.5 L 654.625 28.875 L 657 12.75 L 647.5 11.375 L 646 11.375 L 644.625 11.75 L 643.625 12.5 L 643.5 12.75 L 642.75 13.125 L 628.875 11.375 z M 472.125 344.625 L 471.25 345.125 L 471.375 346.75 L 472 348.125 L 473.25 348.5 L 473.625 348.375 L 473.875 348.125 L 473.625 346 L 472.125 344.625 z "
       transform="matrix(0.8,0,0,-0.8,0,575.20001)"
       id="path3751" /></g><g
     inkscape:groupmode="layer"
     id="layer2"
     inkscape:label="water"
     sodipodi:insensitive="true"
     style="display:inline"><g
       transform="matrix(2.083325,0,0,-2.083325,0.2499989,718.75)"
       inkscape:label="water"
       id="g7281"><g
         transform="scale(0.288,0.288)"
         id="g7283" /></g></g></svg>